<?xml version="1.0" encoding="UTF-8"?>
<svg xmlns="http://www.w3.org/2000/svg" xmlns:xlink="http://www.w3.org/1999/xlink" viewBox="0 0 50 50" width="50px" height="50px">
<g id="surface123236043">
<rect x="0" y="0" width="50" height="50" style="fill:rgb(100%,100%,100%);fill-opacity:1;stroke:none;"/>
<path style=" stroke:none;fill-rule:nonzero;fill:rgb(0%,0%,0%);fill-opacity:1;" d="M 19 6 C 9.746094 6 2 12.359375 2 20.5 C 2 24.894531 4.292969 28.679688 7.835938 31.324219 L 5.179688 39.304688 L 13.472656 34.167969 C 15.1875 34.707031 17.082031 35 19 35 C 19.746094 35 20.472656 34.945312 21.195312 34.863281 C 23.378906 39.105469 28.328125 42 34 42 C 35.722656 42 37.316406 41.675781 38.796875 41.234375 L 45.644531 45.066406 L 43.734375 38.515625 C 46.3125 36.375 48 33.394531 48 30 C 48 23.789062 42.597656 18.835938 35.75 18.105469 C 34.398438 11.125 27.324219 6 19 6 Z M 19 8 C 26.308594 8 32.328125 12.351562 33.703125 18.011719 C 26.183594 18.148438 20 23.355469 20 30 C 20 31.019531 20.160156 32.003906 20.4375 32.941406 C 19.964844 32.980469 19.484375 33 19 33 C 17.101562 33 15.199219 32.710938 13.632812 32.15625 L 13.183594 32 L 8.820312 34.699219 L 10.1875 30.59375 L 9.5625 30.171875 C 6.082031 27.820312 4 24.445312 4 20.5 C 4 13.640625 10.65625 8 19 8 Z M 13 14 C 11.898438 14 11 14.898438 11 16 C 11 17.101562 11.898438 18 13 18 C 14.101562 18 15 17.101562 15 16 C 15 14.898438 14.101562 14 13 14 Z M 25 14 C 23.898438 14 23 14.898438 23 16 C 23 17.101562 23.898438 18 25 18 C 26.101562 18 27 17.101562 27 16 C 27 14.898438 26.101562 14 25 14 Z M 34 20 C 40.746094 20 46 24.535156 46 30 C 46 32.957031 44.492188 35.550781 42.003906 37.394531 L 41.445312 37.8125 L 42.355469 40.933594 L 39.105469 39.109375 L 38.683594 39.25 C 37.285156 39.71875 35.6875 40 34 40 C 27.253906 40 22 35.464844 22 30 C 22 24.535156 27.253906 20 34 20 Z M 29.5 26 C 28.699219 26 28 26.699219 28 27.5 C 28 28.300781 28.699219 29 29.5 29 C 30.300781 29 31 28.300781 31 27.5 C 31 26.699219 30.300781 26 29.5 26 Z M 38.5 26 C 37.699219 26 37 26.699219 37 27.5 C 37 28.300781 37.699219 29 38.5 29 C 39.300781 29 40 28.300781 40 27.5 C 40 26.699219 39.300781 26 38.5 26 Z M 38.5 26 "/>
</g>
</svg>
